#!OML:ASF I:\Actors\actors\Patient Classification 2\Patient 1\Session 1\actor1.ASF
:FULLY-SPECIFIED
:DEGREES
488
root -0.791292 18.6366 6.48311 1.80332 -3.15917 -4.33705
lowerback 3.70352 0.534872 2.44135
upperback -2.84123 0.903969 0.954272
thorax -4.9958 0.380646 -0.452835
lowerneck -13.9943 -2.11803 -0.327081
upperneck 15.7818 -3.27371 2.42184
head 7.19099 -1.36925 0.505747
rclavicle 8.44835e-016 -3.77691e-015
rhumerus -54.5741 -1.84969 -80.603
rradius 66.1571
rwrist 6.64556
rhand -20.4133 -31.028
rfingers 7.12502
rthumb 5.94085 -60.9247
lclavicle 8.44835e-016 -3.77691e-015
lhumerus -43.5004 -0.386586 88.3133
lradius 40.7842
lwrist -8.28098
lhand -3.25986 -22.8694
lfingers 7.12502
lthumb 22.4645 5.84402
rfemur 0 0 0
rtibia 0
rfoot 0 0
rtoes 0
lfemur -2.56795 -6.25697 -10.0911
ltibia 22.9329
lfoot -25.3121 14.7323
ltoes -56.1077
489
root -0.798184 18.637 6.48352 1.76202 -3.0237 -4.35784
lowerback 3.62731 0.594148 2.46003
upperback -2.83702 0.982348 0.970367
thorax -4.94599 0.419778 -0.451858
lowerneck -13.9167 -2.02843 -0.143894
upperneck 15.9155 -3.14969 2.18097
head 7.21196 -1.31988 0.410628
rclavicle -2.60905e-015 -1.39149e-014
rhumerus -54.4071 -2.83817 -80.2232
rradius 63.4405
rwrist 6.05184
rhand -20.5936 -31.7705
rfingers 7.12502
rthumb 5.76669 -61.672
lclavicle -2.60905e-015 -1.39149e-014
lhumerus -43.3098 0.00124011 88.1639
lradius 40.0442
lwrist -9.04278
lhand -3.18608 -23.0644
lfingers 7.12502
lthumb 22.5354 5.64044
rfemur 0 0 0
rtibia 0
rfoot 0 0
rtoes 0
lfemur -2.56643 -6.31586 -10.0409
ltibia 22.947
lfoot -25.231 14.7358
ltoes -56.2083
490
root -0.803421 18.6362 6.48348 1.68106 -2.89603 -4.40427
lowerback 3.58212 0.644672 2.51803
upperback -2.79707 1.05175 0.992865
thorax -4.87631 0.453692 -0.465614
lowerneck -14.006 -1.95981 -0.156547
upperneck 16.1884 -3.06298 2.19158
head 7.31586 -1.27409 0.423289
rclavicle 9.47333e-015 3.18055e-015
rhumerus -54.1283 -3.72305 -79.8629
rradius 60.7421
rwrist 5.50281
rhand -20.4827 -32.7002
rfingers 7.12502
rthumb 5.8738 -62.5987
lclavicle 9.47333e-015 3.18055e-015
lhumerus -43.0091 0.516883 87.9677
lradius 39.2037
lwrist -9.93167
lhand -3.17173 -23.2923
lfingers 7.12502
lthumb 22.5491 5.41095
rfemur 0 0 0
rtibia 0
rfoot 0 0
rtoes 0
lfemur -2.51685 -6.33869 -9.96123
ltibia 22.9553
lfoot -25.1569 14.6465
ltoes -56.1541
491
root -0.808154 18.6342 6.48281 1.56571 -2.78881 -4.43605
lowerback 3.57248 0.679418 2.54497
upperback -2.72704 1.09941 1.03142
thorax -4.79679 0.478519 -0.443931
lowerneck -14.2007 -1.87751 -0.296908
upperneck 16.5416 -2.9615 2.35738
head 7.4692 -1.21288 0.508274
rclavicle 4.71492e-015 5.36719e-015
rhumerus -53.7489 -4.54599 -79.4794
rradius 58.0668
rwrist 5.31123
rhand -19.7799 -33.7014
rfingers 7.12502
rthumb 6.55229 -63.58
lclavicle 4.71492e-015 5.36719e-015
lhumerus -42.6921 1.13441 87.7612
lradius 38.4088
lwrist -10.7834
lhand -3.19679 -23.5837
lfingers 7.12502
lthumb 22.5251 5.12246
rfemur 0 0 0
rtibia 0
rfoot 0 0
rtoes 0
lfemur -2.4237 -6.40692 -9.91133
ltibia 22.9582
lfoot -25.1569 14.5502
ltoes -56.0366
492
root -0.812256 18.6325 6.48339 1.42695 -2.67216 -4.37354
lowerback 3.57171 0.705062 2.50591
upperback -2.68886 1.13024 1.0255
thorax -4.7562 0.495748 -0.430296
lowerneck -14.1363 -1.79725 -0.322014
upperneck 16.7194 -2.8507 2.35846
head 7.51494 -1.1599 0.524663
rclavicle -2.06922e-014 -9.93923e-016
rhumerus -53.4494 -5.41851 -79.0436
rradius 55.2955
rwrist 5.44442
rhand -19.2062 -34.0019
rfingers 7.12502
rthumb 7.10612 -63.8626
lclavicle -2.06922e-014 -9.93923e-016
lhumerus -42.5194 1.63767 87.5801
lradius 37.7301
lwrist -11.4528
lhand -3.18557 -23.744
lfingers 7.12502
lthumb 22.5359 4.96085
rfemur 0 0 0
rtibia 0
rfoot 0 0
rtoes 0
lfemur -2.30893 -6.46794 -9.97128
ltibia 22.9544
lfoot -25.1537 14.4548
ltoes -56.0121
493
root -0.81549 18.6321 6.48553 1.31676 -2.53572 -4.28444
lowerback 3.51041 0.732165 2.48494
upperback -2.6907 1.1608 0.971046
thorax -4.72163 0.511043 -0.476247
lowerneck -13.8754 -1.74881 -0.254797
upperneck 16.8085 -2.79273 2.31862
head 7.49582 -1.13291 0.508668
rclavicle 2.07481e-015 -9.14409e-015
rhumerus -53.2375 -6.30877 -78.631
rradius 52.4571
rwrist 5.57251
rhand -19.272 -34.4113
rfingers 7.12502
rthumb 7.04256 -64.2741
lclavicle 2.07481e-015 -9.14409e-015
lhumerus -42.4505 2.04163 87.3741
lradius 37.1139
lwrist -12.0682
lhand -3.15112 -23.8953
lfingers 7.12502
lthumb 22.5689 4.80554
rfemur 0 0 0
rtibia 0
rfoot 0 0
rtoes 0
lfemur -2.22388 -6.5274 -10.0587
ltibia 22.9475
lfoot -25.1142 14.3621
ltoes -55.9653
494
root -0.819386 18.6318 6.48646 1.25362 -2.41849 -4.24974
lowerback 3.40583 0.768671 2.49449
upperback -2.6961 1.20467 0.926411
thorax -4.66544 0.532363 -0.529364
lowerneck -13.6874 -1.72836 -0.166141
upperneck 16.9703 -2.78844 2.32271
head 7.51458 -1.1245 0.497068
rclavicle -7.61594e-015 -9.14409e-015
rhumerus -52.9921 -7.22029 -78.1937
rradius 49.6796
rwrist 5.96344
rhand -19.2034 -35.3087
rfingers 7.12502
rthumb 7.10879 -65.1693
lclavicle -7.61594e-015 -9.14409e-015
lhumerus -42.3953 2.41794 87.1636
lradius 36.5565
lwrist -12.7297
lhand -3.20201 -24.124
lfingers 7.12502
lthumb 22.5201 4.58268
rfemur 0 0 0
rtibia 0
rfoot 0 0
rtoes 0
lfemur -2.19094 -6.56755 -10.0767
ltibia 22.9464
lfoot -25.0409 14.2792
ltoes -55.9247
495
root -0.82356 18.6307 6.48607 1.17725 -2.32515 -4.24968
lowerback 3.33591 0.804772 2.50724
upperback -2.6936 1.2502 0.904805
thorax -4.6211 0.55473 -0.560952
lowerneck -13.5159 -1.7392 -0.102145
upperneck 17.1036 -2.81602 2.30236
head 7.52722 -1.13535 0.478112
rclavicle -1.31322e-014 -1.61016e-014
rhumerus -52.7562 -8.16115 -77.683
rradius 47.0266
rwrist 6.74232
rhand -18.7532 -35.8691
rfingers 7.12502
rthumb 7.54339 -65.7146
lclavicle -1.31322e-014 -1.61016e-014
lhumerus -42.3963 2.64148 87.0521
lradius 36.1507
lwrist -13.1815
lhand -3.3804 -24.1788
lfingers 7.12502
lthumb 22.3488 4.54855
rfemur 0 0 0
rtibia 0
rfoot 0 0
rtoes 0
lfemur -2.15304 -6.55355 -10.0519
ltibia 22.9598
lfoot -24.9578 14.2122
ltoes -56.0005
496
root -0.826815 18.6302 6.48545 1.10062 -2.22284 -4.28675
lowerback 3.2461 0.838947 2.55633
upperback -2.67208 1.29476 0.902997
thorax -4.54536 0.576317 -0.591741
lowerneck -13.2718 -1.76121 -0.115543
upperneck 17.1342 -2.84778 2.32931
head 7.4951 -1.15056 0.487817
rclavicle 1.39522e-014 4.96962e-015
rhumerus -52.577 -9.09753 -77.1351
rradius 44.6043
rwrist 7.76601
rhand -18.5301 -35.769
rfingers 7.12502
rthumb 7.75875 -65.6067
lclavicle 1.39522e-014 4.96962e-015
lhumerus -42.3939 2.80604 87.0148
lradius 35.8568
lwrist -13.5095
lhand -3.47606 -24.1538
lfingers 7.12502
lthumb 22.257 4.58461
rfemur 0 0 0
rtibia 0
rfoot 0 0
rtoes 0
lfemur -2.12046 -6.55649 -9.9878
ltibia 22.9849
lfoot -24.907 14.1662
ltoes -56.0967
497
root -0.829576 18.6298 6.48454 1.0595 -2.13528 -4.35053
lowerback 3.1136 0.885369 2.63238
upperback -2.63582 1.35525 0.906129
thorax -4.42908 0.605719 -0.632544
lowerneck -13.0509 -1.78292 -0.11571
upperneck 17.1448 -2.8781 2.33889
head 7.46005 -1.16588 0.48972
rclavicle 2.36057e-016 -5.56597e-015
rhumerus -52.4816 -9.96523 -76.6329
rradius 42.4836
rwrist 8.86037
rhand -18.6388 -35.3817
rfingers 7.12502
rthumb 7.6538 -65.2232
lclavicle 2.36057e-016 -5.56597e-015
lhumerus -42.3513 2.99735 86.9812
lradius 35.5835
lwrist -13.8471
lhand -3.36065 -24.2996
lfingers 7.12502
lthumb 22.3678 4.4255
rfemur 0 0 0
rtibia 0
rfoot 0 0
rtoes 0
lfemur -2.11921 -6.57971 -9.89562
ltibia 23.0093
lfoot -24.8674 14.1187
ltoes -56.1362
